<svg xmlns="http://www.w3.org/2000/svg" xmlns:xlink="http://www.w3.org/1999/xlink" viewBox="0,0,256,256" width="48px" height="48px" fill-rule="nonzero"><g fill="#ffffff" fill-rule="nonzero" stroke="none" stroke-width="1" stroke-linecap="butt" stroke-linejoin="miter" stroke-miterlimit="10" stroke-dasharray="" stroke-dashoffset="0" font-family="none" font-weight="none" font-size="none" text-anchor="none" style="mix-blend-mode: normal"><g transform="scale(10.66667,10.66667)"><path d="M12.5,2c-0.99114,0.00082 -1.91791,0.49114 -2.47624,1.31006c-0.55832,0.81893 -0.67613,1.86076 -0.31478,2.78369c-0.22857,-0.05593 -0.46344,-0.09375 -0.70898,-0.09375h-5c-1.654,0 -3,1.346 -3,3v5c0,1.654 1.346,3 3,3h5c1.654,0 3,-1.346 3,-3v-5c0,-0.38403 -0.07881,-0.74811 -0.21094,-1.08594c0.2327,0.05693 0.47138,0.08578 0.71094,0.08594c1.65685,0 3,-1.34315 3,-3c0,-1.65685 -1.34315,-3 -3,-3zM19,4c-1.10457,0 -2,0.89543 -2,2c0,1.10457 0.89543,2 2,2c1.10457,0 2,-0.89543 2,-2c0,-1.10457 -0.89543,-2 -2,-2zM4,9h2h1h2v1h-2v4h-1v-4h-2zM14,9v5c0,2.76 -2.24,5 -5,5h-1.39062c0.91,1.78 2.76062,3 4.89063,3c2.74,0 5.02945,-1.95969 5.43945,-4.67969c0.04,-0.27 0.06055,-0.54031 0.06055,-0.82031v-6.5c0,-0.55 -0.45,-1 -1,-1zM19.82031,9c0.12,0.31 0.17969,0.65 0.17969,1v6.5c0,0.38 -0.03008,0.73937 -0.08008,1.10938c-0.07,0.46 -0.18008,0.90984 -0.33008,1.33984c1.93,-0.28 3.41016,-1.93922 3.41016,-3.94922v-5c0,-0.55 -0.45,-1 -1,-1z"></path></g></g></svg>